<?xml version="1.0" encoding="UTF-8" standalone="no"?>
<!-- Created with Inkscape (http://www.inkscape.org/) -->

<svg
   version="1.1"
   id="svg1"
   width="1100"
   height="1017.3333"
   viewBox="0 0 1100 1017.3333"
   sodipodi:docname="vss_logo.svg"
   inkscape:version="1.3 (0e150ed6c4, 2023-07-21)"
   xmlns:inkscape="http://www.inkscape.org/namespaces/inkscape"
   xmlns:sodipodi="http://sodipodi.sourceforge.net/DTD/sodipodi-0.dtd"
   xmlns="http://www.w3.org/2000/svg"
   xmlns:svg="http://www.w3.org/2000/svg">
  <defs
     id="defs1" />
  <sodipodi:namedview
     id="namedview1"
     pagecolor="#ffffff"
     bordercolor="#000000"
     borderopacity="0.25"
     inkscape:showpageshadow="2"
     inkscape:pageopacity="0.0"
     inkscape:pagecheckerboard="0"
     inkscape:deskcolor="#d1d1d1"
     showguides="true"
     inkscape:zoom="0.5"
     inkscape:cx="490"
     inkscape:cy="491"
     inkscape:window-width="3840"
     inkscape:window-height="2054"
     inkscape:window-x="-11"
     inkscape:window-y="-11"
     inkscape:window-maximized="1"
     inkscape:current-layer="g1" />
  <g
     inkscape:groupmode="layer"
     inkscape:label="Image"
     id="g1">
    <path
       style="fill:none;fill-opacity:1;stroke:#1f75fe;stroke-opacity:1;stroke-width:20;stroke-dasharray:none"
       d="M 808.12132,149.35355 C 810.30191,133.22648 808.4995,113.91744 806,97.790368 804.58579,73.265941 754.03581,47.992869 733.97684,49 H 310.77343 C 180.66414,49.898576 144.42448,107.40556 137,182.28963 l -0.35355,739.7294 c -1.16164,16.06191 9.23047,35.00486 39.42314,33.94113 l 120.203,-0.0218 c 32.30036,-0.40828 37.54382,-15.73838 38.37386,-35.28528 L 335,855 606.34054,854 c 17.16922,0 31.04785,-26.50806 33.73915,-41.36575 13.63346,-126.44916 69.24525,-165.88213 114.87005,-164.9774 65.42115,12.74125 64.47892,103.4009 88.81472,173.10913 3.75818,14.3318 35.29154,40.30509 62.7122,41.01219 32.64171,-0.29256 56.74174,-27.6063 57.52334,-40.8272 V 449.71991 C 959.68639,414.27912 932.65988,415.3043 917.33095,412.59619 781.84693,422.12265 774.85599,488.01581 619,469 c -25.85817,0.46331 -72.54527,-64.53107 -15,-82 129.75844,-4.20109 247.62453,-26.88375 359.00001,-88 13.84934,-10.8668 98.03589,-69.17449 1.76777,-140.6967 -15.12646,-3.87058 -30.2005,-7.95085 -46.24178,-8.16212 z"
       id="path3"
       sodipodi:nodetypes="cccccccccccccccccccccccc" />
    <circle
       style="fill:#1f75fe;fill-opacity:1;stroke:#1f75fe;stroke-opacity:1;stroke-width:20;stroke-dasharray:none"
       id="path5"
       cx="541"
       cy="234"
       r="22" />
    <path
       style="fill:none;fill-opacity:1;stroke:#1f75fe;stroke-opacity:1;stroke-width:20;stroke-dasharray:none"
       d="M 808.12132,149.35355 506.5,148.5 C 477.48879,147.66538 451.13787,152.78475 436,183 L 236,795.5 c -4.98151,23.93361 -17.08984,49.95312 30.5,58.5 l 68.5,1"
       id="path6"
       sodipodi:nodetypes="cccccc" />
    <path
       style="fill:#1f75fe;fill-opacity:1;stroke:#1f75fe;stroke-opacity:1;stroke-width:20;stroke-dasharray:none"
       d="M 432,759.5 C 397.0647,757.44454 394.29884,742.74385 398.75,716 L 454.5,580 c 8.72004,-15.60686 21.77676,-28.97543 51,-34 44.33149,-5.96526 90.51144,-4.99875 137.5,-1 48.49275,8.45048 46.63029,58.49131 16.5,81 -32.6723,10.58512 -50.81943,33.08833 -57.5,65 -4.28668,40.34703 -28.1513,54.96306 -55.5,65 z"
       id="path7"
       sodipodi:nodetypes="ccccccccc" />
    <path
       style="fill:#1f75fe;fill-opacity:1;stroke:#1f75fe;stroke-width:20;stroke-dasharray:none;stroke-opacity:1"
       d="m 161.21564,943.62907 c -6.32354,-2.20782 -9.83752,-5.23813 -12.3256,-10.62907 -1.78421,-3.86586 -1.84685,-16.45922 -1.86808,-375.52623 -0.015,-253.33079 0.31176,-374.22204 1.02704,-380 7.12393,-57.54686 32.86466,-91.039068 82.08697,-106.806378 12.38164,-3.966193 20.46623,-5.81536 36.86403,-8.431816 13.49243,-2.152871 13.62891,-2.154257 243.27275,-2.471545 l 229.77275,-0.317465 9.22725,3.083677 c 19.89257,6.647948 38.75958,19.680437 44.68505,30.866444 1.5173,2.864333 3.61138,18.306463 4.59079,33.853313 l 0.70872,11.25 -156.87866,0.0131 c -151.16397,0.0127 -157.22005,0.0836 -166.25079,1.94697 -20.63429,4.25767 -35.19941,14.55878 -46.64015,32.98603 -3.63924,5.8616 -202.66051,615.11777 -206.05456,630.78688 -3.13314,14.4646 -3.24637,26.01843 -0.33134,33.80953 4.16977,11.14472 16.39061,20.02276 33.5648,24.38373 6.62656,1.68266 11.26409,2.07372 24.59189,2.07372 9.0339,0 22.45893,0.28907 29.83339,0.64238 l 13.40811,0.64238 -0.29206,30.60762 c -0.3744,39.23709 -1.06757,42.00524 -11.72159,46.80989 -3.69951,1.66838 -9.0951,1.81479 -74.98635,2.03477 -66.7879,0.22297 -71.3135,0.12758 -76.28436,-1.60797 z"
       id="path8" />
  </g>
</svg>
